# Made in Blockbench 5.1.6
mtllib encased_large_cogwheel.mtl

o tube1
v 0.7763225 0.59375 1.53125
v 0.7763225 0.71875 1.53125
v 0.6520956250000001 0.59375 1.06762875
v 0.6520956250000001 0.71875 1.06762875
v 1.2549275 0.59375 1.2549275
v 1.2549275 0.71875 1.2549275
v 0.9155331250000001 0.59375 0.9155331250000001
v 0.9155331250000001 0.71875 0.9155331250000001
v 1.53125 0.59375 0.7763225
v 1.53125 0.71875 0.7763225
v 1.06762875 0.59375 0.6520956250000001
v 1.06762875 0.71875 0.6520956250000001
v 1.53125 0.59375 0.22367749999999997
v 1.53125 0.71875 0.22367749999999997
v 1.06762875 0.59375 0.347904375
v 1.06762875 0.71875 0.347904375
v 1.2549275 0.59375 -0.2549275
v 1.2549275 0.71875 -0.2549275
v 0.9155331250000001 0.59375 0.084466875
v 0.9155331250000001 0.71875 0.084466875
v 0.7763225 0.59375 -0.53125
v 0.7763225 0.71875 -0.53125
v 0.6520956250000001 0.59375 -0.06762875000000002
v 0.6520956250000001 0.71875 -0.06762875000000002
v 0.22367749999999997 0.59375 -0.53125
v 0.22367749999999997 0.71875 -0.53125
v 0.347904375 0.59375 -0.06762875000000002
v 0.347904375 0.71875 -0.06762875000000002
v -0.2549275 0.59375 -0.2549275
v -0.2549275 0.71875 -0.2549275
v 0.084466875 0.59375 0.084466875
v 0.084466875 0.71875 0.084466875
v -0.53125 0.59375 0.22367749999999997
v -0.53125 0.71875 0.22367749999999997
v -0.06762875000000002 0.59375 0.347904375
v -0.06762875000000002 0.71875 0.347904375
v -0.53125 0.59375 0.7763225
v -0.53125 0.71875 0.7763225
v -0.06762875000000002 0.59375 0.6520956250000001
v -0.06762875000000002 0.71875 0.6520956250000001
v -0.2549275 0.59375 1.2549275
v -0.2549275 0.71875 1.2549275
v 0.084466875 0.59375 0.9155331250000001
v 0.084466875 0.71875 0.9155331250000001
v 0.22367749999999997 0.59375 1.53125
v 0.22367749999999997 0.71875 1.53125
v 0.347904375 0.59375 1.06762875
v 0.347904375 0.71875 1.06762875
vt 0 0.375
vt 0.55265 0.375
vt 0.55265 0.5
vt 0 0.5
vt 0.30418749999999994 0.5
vt 0 0.5
vt 0 0.375
vt 0.30418749999999994 0.375
vt 0.6191284308819078 0.06250312495535737
vt 0.9108361777300962 0.06250312495535737
vt 1 0.4999968749999997
vt 0.5 0.4999950000267853
vt 1 0.49999625000892844
vt 0.5 0.49999625000892844
vt 0.5784404527329032 0.06250249996428603
vt 0.8777628539589526 0.06250374994642904
vt 0 0.375
vt 0.55265 0.375
vt 0.55265 0.5
vt 0 0.5
vt 0.30418749999999994 0.5
vt 0 0.5
vt 0 0.375
vt 0.30418749999999994 0.375
vt 0.880877562579226 0.06250312495535737
vt 0.5891704150771507 0.06250312495535737
vt 0.5 0.4999950000267853
vt 1 0.4999968749999999
vt 0.5 0.49999625000892844
vt 1 0.49999625000892844
vt 0.9215570872969602 0.06250374994642904
vt 0.622234071078377 0.06250249996428603
vt 0 0.375
vt 0.55265 0.375
vt 0.55265 0.5
vt 0 0.5
vt 0.30418749999999994 0.5
vt 0 0.5
vt 0 0.375
vt 0.30418749999999994 0.375
vt 0.6191320269585878 0.0625
vt 0.9108337803456426 0.0625
vt 1 0.4999937500446424
vt 0.5 0.4999937500446424
vt 1 0.4999937500446424
vt 0.5 0.4999937500446424
vt 0.6191320269585878 0.0625
vt 0.9108337803456426 0.0625
vt 0 0.375
vt 0.55265 0.375
vt 0.55265 0.5
vt 0 0.5
vt 0.30418749999999994 0.5
vt 0 0.5
vt 0 0.375
vt 0.30418749999999994 0.375
vt 0.9215552423193581 0.06250312495535759
vt 0.6222322261007751 0.06250312495535759
vt 0.5 0.4999968749999999
vt 1 0.4999950000267853
vt 0.5 0.4999962500089282
vt 1 0.49999625000892844
vt 0.880875764540886 0.06250249996428592
vt 0.5891686170388106 0.06250374994642893
vt 0 0.375
vt 0.55265 0.375
vt 0.55265 0.5
vt 0 0.5
vt 0.30418749999999994 0.5
vt 0 0.5
vt 0 0.375
vt 0.30418749999999994 0.375
vt 0.5784386077553014 0.06250312495535759
vt 0.8777610089813508 0.06250312495535759
vt 1 0.4999950000267853
vt 0.5 0.4999968749999999
vt 1 0.4999962500089282
vt 0.5 0.49999625000892844
vt 0.6191266328435674 0.06250374994642893
vt 0.9108343796917557 0.06250249996428592
vt 0 0.375
vt 0.55265 0.375
vt 0.55265 0.5
vt 0 0.5
vt 0.30418749999999994 0.5
vt 0 0.5
vt 0 0.375
vt 0.30418749999999994 0.375
vt 0.9215589322745623 0.0625
vt 0.622242065981319 0.0625
vt 0.5 0.4999937500446424
vt 1 0.4999937500446425
vt 0.5 0.4999968749999997
vt 1 0.4999968749999999
vt 0.8808679730414117 0.06250312495535737
vt 0.5891662196543572 0.06250312495535737
vt 0 0.375
vt 0.55265 0.375
vt 0.55265 0.5
vt 0 0.5
vt 0.30418749999999994 0.5
vt 0 0.5
vt 0 0.375
vt 0.30418749999999994 0.375
vt 0.5784447576806415 0.06250312495535759
vt 0.8777677738992247 0.06250312495535759
vt 1 0.4999968749999999
vt 0.5 0.4999950000267853
vt 1 0.4999968749999997
vt 0.5 0.4999968749999999
vt 0.6191242354591138 0.06250312495535737
vt 0.9108313829611889 0.0625043749375005
vt 0 0.375
vt 0.55265 0.375
vt 0.55265 0.5
vt 0 0.5
vt 0.30418749999999994 0.5
vt 0 0.5
vt 0 0.375
vt 0.30418749999999994 0.375
vt 0.9215613922446981 0.06250312495535759
vt 0.622238991018649 0.06250312495535759
vt 0.5 0.4999950000267853
vt 1 0.4999968749999999
vt 0.5 0.4999968749999997
vt 1 0.4999968749999999
vt 0.8808733671564324 0.0625043749375005
vt 0.5891656203082438 0.06250312495535737
vt 0 0.375
vt 0.55265 0.375
vt 0.55265 0.5
vt 0 0.5
vt 0.30418749999999994 0.5
vt 0 0.5
vt 0 0.375
vt 0.30418749999999994 0.375
vt 0.5784410677254375 0.06250312495535759
vt 0.877757934018681 0.06250312495535759
vt 1 0.4999968749999999
vt 0.5 0.4999968749999999
vt 1 0.4999968749999999
vt 0.5 0.4999968749999999
vt 0.5784410677254375 0.06250312495535759
vt 0.877757934018681 0.06250312495535759
vt 0 0.375
vt 0.55265 0.375
vt 0.55265 0.5
vt 0 0.5
vt 0.30418749999999994 0.5
vt 0 0.5
vt 0 0.375
vt 0.30418749999999994 0.375
vt 0.8808715691180922 0.06250312495535737
vt 0.5891638222699034 0.06250312495535737
vt 0.5 0.4999968749999997
vt 1 0.4999950000267853
vt 0.5 0.5
vt 1 0.5
vt 0.9215595472670963 0.0625062499553577
vt 0.6222371460410472 0.0625074999375006
vt 0 0.375
vt 0.55265 0.375
vt 0.55265 0.5
vt 0 0.5
vt 0.30418749999999994 0.5
vt 0 0.5
vt 0 0.375
vt 0.30418749999999994 0.375
vt 0.6191224374207733 0.06250312495535737
vt 0.9108295849228488 0.06250312495535737
vt 1 0.4999950000267853
vt 0.5 0.4999968749999999
vt 1 0.5
vt 0.5 0.5
vt 0.5784429127030393 0.0625074999375006
vt 0.8777659289216224 0.0625062499553577
vt 0 0.375
vt 0.55265 0.375
vt 0.55265 0.5
vt 0 0.5
vt 0.30418749999999994 0.5
vt 0 0.5
vt 0 0.375
vt 0.30418749999999994 0.375
vt 0.8808679730414117 0.06250312495535737
vt 0.5891662196543572 0.06250312495535737
vt 0.5 0.4999968749999997
vt 1 0.4999968749999999
vt 0.5 0.4999999999999999
vt 1 0.5
vt 0.9215589322745623 0.06250624995535747
vt 0.622242065981319 0.06250624995535747
vn 0.49999969385584014 0 0.8660255805367798
vn -0.4999997866319021 0 -0.8660255269725325
vn 0 -1 0
vn 0 1 0
vn 0.8660255805367798 0 0.49999969385584014
vn -0.8660255269725325 0 -0.4999997866319021
vn 0 -1 0
vn 0 1 0
vn 1 0 0
vn -1 0 0
vn 0 -1 0
vn 0 1 0
vn 0.8660255805367798 0 -0.49999969385584014
vn -0.8660255269725325 0 0.4999997866319021
vn 0 -1 0
vn 0 1 0
vn 0.49999969385584014 0 -0.8660255805367798
vn -0.4999997866319021 0 0.8660255269725325
vn 0 -1 0
vn 0 1 0
vn 0 0 -1
vn 0 0 1
vn 0 -1 0
vn 0 1 0
vn -0.49999969385584014 0 -0.8660255805367798
vn 0.4999997866319021 0 0.8660255269725325
vn 0 -1 0
vn 0 1 0
vn -0.8660255805367798 0 -0.49999969385584014
vn 0.8660255269725325 0 0.4999997866319021
vn 0 -1 0
vn 0 1 0
vn -1 0 0
vn 1 0 0
vn 0 -1 0
vn 0 1 0
vn -0.8660255805367798 0 0.49999969385584014
vn 0.8660255269725325 0 -0.4999997866319021
vn 0 -1 0
vn 0 1 0
vn -0.49999969385584014 0 0.8660255805367798
vn 0.4999997866319021 0 -0.8660255269725325
vn 0 -1 0
vn 0 1 0
vn 0 0 1
vn 0 0 -1
vn 0 -1 0
vn 0 1 0
usemtl m_8bb54874-b2ca-269d-68b3-193ddd26a8e7
f 1/1/1 5/2/1 6/3/1 2/4/1
f 4/5/2 8/6/2 7/7/2 3/8/2
f 3/9/3 7/10/3 5/11/3 1/12/3
f 2/13/4 6/14/4 8/15/4 4/16/4
f 5/17/5 9/18/5 10/19/5 6/20/5
f 8/21/6 12/22/6 11/23/6 7/24/6
f 7/25/7 11/26/7 9/27/7 5/28/7
f 6/29/8 10/30/8 12/31/8 8/32/8
f 9/33/9 13/34/9 14/35/9 10/36/9
f 12/37/10 16/38/10 15/39/10 11/40/10
f 11/41/11 15/42/11 13/43/11 9/44/11
f 10/45/12 14/46/12 16/47/12 12/48/12
f 13/49/13 17/50/13 18/51/13 14/52/13
f 16/53/14 20/54/14 19/55/14 15/56/14
f 15/57/15 19/58/15 17/59/15 13/60/15
f 14/61/16 18/62/16 20/63/16 16/64/16
f 17/65/17 21/66/17 22/67/17 18/68/17
f 20/69/18 24/70/18 23/71/18 19/72/18
f 19/73/19 23/74/19 21/75/19 17/76/19
f 18/77/20 22/78/20 24/79/20 20/80/20
f 21/81/21 25/82/21 26/83/21 22/84/21
f 24/85/22 28/86/22 27/87/22 23/88/22
f 23/89/23 27/90/23 25/91/23 21/92/23
f 22/93/24 26/94/24 28/95/24 24/96/24
f 25/97/25 29/98/25 30/99/25 26/100/25
f 28/101/26 32/102/26 31/103/26 27/104/26
f 27/105/27 31/106/27 29/107/27 25/108/27
f 26/109/28 30/110/28 32/111/28 28/112/28
f 29/113/29 33/114/29 34/115/29 30/116/29
f 32/117/30 36/118/30 35/119/30 31/120/30
f 31/121/31 35/122/31 33/123/31 29/124/31
f 30/125/32 34/126/32 36/127/32 32/128/32
f 33/129/33 37/130/33 38/131/33 34/132/33
f 36/133/34 40/134/34 39/135/34 35/136/34
f 35/137/35 39/138/35 37/139/35 33/140/35
f 34/141/36 38/142/36 40/143/36 36/144/36
f 37/145/37 41/146/37 42/147/37 38/148/37
f 40/149/38 44/150/38 43/151/38 39/152/38
f 39/153/39 43/154/39 41/155/39 37/156/39
f 38/157/40 42/158/40 44/159/40 40/160/40
f 41/161/41 45/162/41 46/163/41 42/164/41
f 44/165/42 48/166/42 47/167/42 43/168/42
f 43/169/43 47/170/43 45/171/43 41/172/43
f 42/173/44 46/174/44 48/175/44 44/176/44
f 45/177/45 1/178/45 2/179/45 46/180/45
f 48/181/46 4/182/46 3/183/46 47/184/46
f 47/185/47 3/186/47 1/187/47 45/188/47
f 46/189/48 2/190/48 4/191/48 48/192/48
o cylinder3
v 0.759575625 0.40625 1.46875
v 0.759575625 0.59375 1.46875
v 1.209174375 0.40625 1.209174375
v 1.209174375 0.59375 1.209174375
v 1.46875 0.40625 0.759575625
v 1.46875 0.59375 0.759575625
v 1.46875 0.40625 0.24042437500000002
v 1.46875 0.59375 0.24042437500000002
v 1.209174375 0.40625 -0.20917437500000002
v 1.209174375 0.59375 -0.20917437500000002
v 0.759575625 0.40625 -0.46875
v 0.759575625 0.59375 -0.46875
v 0.24042437500000002 0.40625 -0.46875
v 0.24042437500000002 0.59375 -0.46875
v -0.20917437500000002 0.40625 -0.20917437500000002
v -0.20917437500000002 0.59375 -0.20917437500000002
v -0.46875 0.40625 0.24042437500000002
v -0.46875 0.59375 0.24042437500000002
v -0.46875 0.40625 0.759575625
v -0.46875 0.59375 0.759575625
v -0.20917437500000002 0.40625 1.209174375
v -0.20917437500000002 0.59375 1.209174375
v 0.24042437500000002 0.40625 1.46875
v 0.24042437500000002 0.59375 1.46875
v 0.984375 0.59375 -0.33896187499999997
v 0.984375 0.40625 -0.33896187499999997
v 0.5 0.59375 -0.46875
v 0.5 0.40625 -0.46875
v 0.015625 0.59375 -0.33896187499999997
v 0.015625 0.40625 -0.33896187499999997
v -0.33896187499999997 0.59375 0.015625
v -0.33896187499999997 0.40625 0.015625
v -0.46875 0.59375 0.5
v -0.46875 0.40625 0.5
v -0.33896187499999997 0.59375 0.984375
v -0.33896187499999997 0.40625 0.984375
v 0.015625 0.59375 1.3389618749999999
v 0.015625 0.40625 1.3389618749999999
v 0.5 0.59375 1.46875
v 0.5 0.40625 1.46875
v 0.984375 0.59375 1.3389618749999999
v 0.984375 0.40625 1.3389618749999999
v 1.3389618749999999 0.59375 0.984375
v 1.3389618749999999 0.40625 0.984375
v 1.46875 0.59375 0.5
v 1.46875 0.40625 0.5
v 1.3389618749999999 0.59375 0.015625
v 1.3389618749999999 0.40625 0.015625
vt 0.5625 0.0625
vt 0.5625 0.3125
vt 0.375 0.3125
vt 0.375 0.0625
vt 0.5625 0.5625
vt 0.5625 0.8125
vt 0.375 0.8125
vt 0.375 0.5625
vt 0.5625 0.0625
vt 0.5625 0.3125
vt 0.375 0.3125
vt 0.375 0.0625
vt 0.5625 0.5625
vt 0.5625 0.8125
vt 0.375 0.8125
vt 0.375 0.5625
vt 0.5625 0.0625
vt 0.5625 0.3125
vt 0.375 0.3125
vt 0.375 0.0625
vt 0.5625 0.5625
vt 0.5625 0.8125
vt 0.375 0.8125
vt 0.375 0.5625
vt 0.5625 0.0625
vt 0.5625 0.3125
vt 0.375 0.3125
vt 0.375 0.0625
vt 0.5625 0.5625
vt 0.5625 0.8125
vt 0.375 0.8125
vt 0.375 0.5625
vt 0.5625 0.0625
vt 0.5625 0.3125
vt 0.375 0.3125
vt 0.375 0.0625
vt 0.5625 0.5625
vt 0.5625 0.8125
vt 0.375 0.8125
vt 0.375 0.5625
vt 0.375 0.0625
vt 0.5625 0.0625
vt 0.5625 0.3125
vt 0.375 0.3125
vt 0.375 0.5625
vt 0.5625 0.5625
vt 0.5625 0.8125
vt 0.375 0.8125
vt 0.5625 0.0625
vt 0.5625 0.3125
vt 0.375 0.3125
vt 0.375 0.0625
vt 0.5625 0.5625
vt 0.5625 0.8125
vt 0.375 0.8125
vt 0.375 0.5625
vt 0.375 0.0625
vt 0.5625 0.0625
vt 0.5625 0.3125
vt 0.375 0.3125
vt 0.375 0.5625
vt 0.5625 0.5625
vt 0.5625 0.8125
vt 0.375 0.8125
vt 0.5625 0.0625
vt 0.5625 0.3125
vt 0.375 0.3125
vt 0.375 0.0625
vt 0.5625 0.5625
vt 0.5625 0.8125
vt 0.375 0.8125
vt 0.375 0.5625
vt 0.375 0.0625
vt 0.5625 0.0625
vt 0.5625 0.3125
vt 0.375 0.3125
vt 0.5625 0.5625
vt 0.5625 0.8125
vt 0.375 0.8125
vt 0.375 0.5625
vt 0.5625 0.0625
vt 0.5625 0.3125
vt 0.375 0.3125
vt 0.375 0.0625
vt 0.5625 0.5625
vt 0.5625 0.8125
vt 0.375 0.8125
vt 0.375 0.5625
vt 0.5625 0.0625
vt 0.5625 0.3125
vt 0.375 0.3125
vt 0.375 0.0625
vt 0.5625 0.5625
vt 0.5625 0.8125
vt 0.375 0.8125
vt 0.375 0.5625
vn 0.49999861407453994 0 -0.8660262039473975
vn 0.5000004199060741 0 -0.866025161351418
vn 0 0 -1
vn 0 0 -1
vn -0.5000004199060741 0 -0.866025161351418
vn -0.49999861407453994 0 -0.8660262039473975
vn -0.8660262039473975 0 -0.49999861407453994
vn -0.866025161351418 0 -0.5000004199060741
vn -1 0 0
vn -1 0 0
vn -0.866025161351418 0 0.5000004199060741
vn -0.8660262039473975 0 0.49999861407453994
vn -0.49999861407453994 0 0.8660262039473975
vn -0.5000004199060741 0 0.866025161351418
vn 0 0 1
vn 0 0 1
vn 0.5000004199060741 0 0.866025161351418
vn 0.49999861407453994 0 0.8660262039473975
vn 0.8660262039473975 0 0.49999861407453994
vn 0.866025161351418 0 0.5000004199060741
vn 1 0 0
vn 1 0 0
vn 0.866025161351418 0 -0.5000004199060741
vn 0.8660262039473975 0 -0.49999861407453994
usemtl m_8bb54874-b2ca-269d-68b3-193ddd26a8e7
f 57/193/49 74/194/49 73/195/49 58/196/49
f 74/197/50 59/198/50 60/199/50 73/200/50
f 59/201/51 76/202/51 75/203/51 60/204/51
f 76/205/52 61/206/52 62/207/52 75/208/52
f 61/209/53 78/210/53 77/211/53 62/212/53
f 78/213/54 63/214/54 64/215/54 77/216/54
f 63/217/55 80/218/55 79/219/55 64/220/55
f 80/221/56 65/222/56 66/223/56 79/224/56
f 65/225/57 82/226/57 81/227/57 66/228/57
f 82/229/58 67/230/58 68/231/58 81/232/58
f 68/233/59 67/234/59 84/235/59 83/236/59
f 83/237/60 84/238/60 69/239/60 70/240/60
f 69/241/61 86/242/61 85/243/61 70/244/61
f 86/245/62 71/246/62 72/247/62 85/248/62
f 72/249/63 71/250/63 88/251/63 87/252/63
f 87/253/64 88/254/64 49/255/64 50/256/64
f 49/257/65 90/258/65 89/259/65 50/260/65
f 90/261/66 51/262/66 52/263/66 89/264/66
f 52/265/67 51/266/67 92/267/67 91/268/67
f 92/269/68 53/270/68 54/271/68 91/272/68
f 53/273/69 94/274/69 93/275/69 54/276/69
f 94/277/70 55/278/70 56/279/70 93/280/70
f 55/281/71 96/282/71 95/283/71 56/284/71
f 96/285/72 57/286/72 58/287/72 95/288/72
o GearCaseOuter1
v 0.9375 0.7515625 0.9375
v 0.9375 0.7515625 0.0625
v 0.9375 0.24843749999999998 0.9375
v 0.9375 0.24843749999999998 0.0625
v 0.0625 0.7515625 0.0625
v 0.0625 0.7515625 0.9375
v 0.0625 0.24843749999999998 0.0625
v 0.0625 0.24843749999999998 0.9375
vt 0.0625 0.9375
vt 0.9375 0.9375
vt 0.9375 0.0625
vt 0.0625 0.0625
vt 0.0625 0.9375
vt 0.9375 0.9375
vt 0.9375 0.0625
vt 0.0625 0.0625
vn 0 1 0
vn 0 -1 0
usemtl m_f611d32f-eb04-ca18-312d-151614c94441
f 102/292/73 97/291/73 98/290/73 101/289/73
f 103/296/74 100/295/74 99/294/74 104/293/74
o GearCaseOuter2
v 0.9375 0.7515625 0.0625
v 0.9375 0.7515625 0
v 0.9375 0.24843749999999998 0.0625
v 0.9375 0.24843749999999998 0
v 0.0625 0.7515625 0
v 0.0625 0.7515625 0.0625
v 0.0625 0.24843749999999998 0
v 0.0625 0.24843749999999998 0.0625
vt 0.4375 0.875
vt 0.4375 0.9375
vt 0.690625 0.9375
vt 0.690625 0.875
vt 0.4375 0.875
vt 0.4375 0.9375
vt 0.690625 0.9375
vt 0.690625 0.875
vt 0.8125 0.9375
vt 0.8125 0.0625
vt 0.75 0.0625
vt 0.75 0.9375
vt 0.75 0.0625
vt 0.75 0.9375
vt 0.8125 0.9375
vt 0.8125 0.0625
vn 1 0 0
vn -1 0 0
vn 0 1 0
vn 0 -1 0
usemtl m_f611d32f-eb04-ca18-312d-151614c94441
f 107/300/75 108/299/75 106/298/75 105/297/75
f 111/304/76 112/303/76 110/302/76 109/301/76
f 110/308/77 105/307/77 106/306/77 109/305/77
f 111/312/78 108/311/78 107/310/78 112/309/78
o GearCaseOuterPlanks2
v 0.9375 0.7515625 0
v 0.9375 0.7515625 -0.0625
v 0.9375 0.24843749999999998 0
v 0.9375 0.24843749999999998 -0.0625
v 0.0625 0.7515625 -0.0625
v 0.0625 0.7515625 0
v 0.0625 0.24843749999999998 -0.0625
v 0.0625 0.24843749999999998 0
vt 0.0625 1
vt 0.9375 1
vt 0.9375 0.934375
vt 0.0625 0.934375
vt 0.5 0.9375
vt 0.5 1
vt 0.753125 1
vt 0.753125 0.9375
vt 0.5 0.9375
vt 0.5 1
vt 0.753125 1
vt 0.753125 0.9375
vt 0.0625 1
vt 0.9375 1
vt 0.9375 0.9375
vt 0.0625 0.9375
vt 0.9375 0.9375
vt 0.0625 0.9375
vt 0.0625 1
vt 0.9375 1
vn 0 0 -1
vn 1 0 0
vn -1 0 0
vn 0 1 0
vn 0 -1 0
usemtl m_8bb54874-b2ca-269d-68b3-193ddd26a8e7
f 116/316/79 119/315/79 117/314/79 114/313/79
f 115/320/80 116/319/80 114/318/80 113/317/80
f 119/324/81 120/323/81 118/322/81 117/321/81
f 118/328/82 113/327/82 114/326/82 117/325/82
f 119/332/83 116/331/83 115/330/83 120/329/83
o GearCaseOuter3
v 1 0.7515625 0.9375
v 1 0.7515625 0.0625
v 1 0.24843749999999998 0.9375
v 1 0.24843749999999998 0.0625
v 0.9375 0.7515625 0.0625
v 0.9375 0.7515625 0.9375
v 0.9375 0.24843749999999998 0.0625
v 0.9375 0.24843749999999998 0.9375
vt 0.4375 0.875
vt 0.4375 0.9375
vt 0.690625 0.9375
vt 0.690625 0.875
vt 0.4375 0.875
vt 0.4375 0.9375
vt 0.690625 0.9375
vt 0.690625 0.875
vt 0.75 0.9375
vt 0.8125 0.9375
vt 0.8125 0.0625
vt 0.75 0.0625
vt 0.75 0.9375
vt 0.8125 0.9375
vt 0.8125 0.0625
vt 0.75 0.0625
vn 0 0 -1
vn 0 0 1
vn 0 1 0
vn 0 -1 0
usemtl m_f611d32f-eb04-ca18-312d-151614c94441
f 124/336/84 127/335/84 125/334/84 122/333/84
f 128/340/85 123/339/85 121/338/85 126/337/85
f 126/344/86 121/343/86 122/342/86 125/341/86
f 127/348/87 124/347/87 123/346/87 128/345/87
o GearCaseOuterPlanks3
v 1.0625 0.7515625 0.9375
v 1.0625 0.7515625 0.0625
v 1.0625 0.24843749999999998 0.9375
v 1.0625 0.24843749999999998 0.0625
v 1 0.7515625 0.0625
v 1 0.7515625 0.9375
v 1 0.24843749999999998 0.0625
v 1 0.24843749999999998 0.9375
vt 0.5 0.9375
vt 0.5 1
vt 0.753125 1
vt 0.753125 0.9375
vt 0.0625 1
vt 0.9375 1
vt 0.9375 0.934375
vt 0.0625 0.934375
vt 0.5 0.9375
vt 0.5 1
vt 0.753125 1
vt 0.753125 0.9375
vt 0.0625 0.9375
vt 0.0625 1
vt 0.9375 1
vt 0.9375 0.9375
vt 0.0625 0.9375
vt 0.0625 1
vt 0.9375 1
vt 0.9375 0.9375
vn 0 0 -1
vn 1 0 0
vn 0 0 1
vn 0 1 0
vn 0 -1 0
usemtl m_8bb54874-b2ca-269d-68b3-193ddd26a8e7
f 132/352/88 135/351/88 133/350/88 130/349/88
f 131/356/89 132/355/89 130/354/89 129/353/89
f 136/360/90 131/359/90 129/358/90 134/357/90
f 134/364/91 129/363/91 130/362/91 133/361/91
f 135/368/92 132/367/92 131/366/92 136/365/92
o GearCaseOuter4
v 0.9375 0.7515625 1
v 0.9375 0.7515625 0.9375
v 0.9375 0.24843749999999998 1
v 0.9375 0.24843749999999998 0.9375
v 0.0625 0.7515625 0.9375
v 0.0625 0.7515625 1
v 0.0625 0.24843749999999998 0.9375
v 0.0625 0.24843749999999998 1
vt 0.4375 0.875
vt 0.4375 0.9375
vt 0.690625 0.9375
vt 0.690625 0.875
vt 0.4375 0.875
vt 0.4375 0.9375
vt 0.690625 0.9375
vt 0.690625 0.875
vt 0.75 0.0625
vt 0.75 0.9375
vt 0.8125 0.9375
vt 0.8125 0.0625
vt 0.8125 0.9375
vt 0.8125 0.0625
vt 0.75 0.0625
vt 0.75 0.9375
vn 1 0 0
vn -1 0 0
vn 0 1 0
vn 0 -1 0
usemtl m_f611d32f-eb04-ca18-312d-151614c94441
f 139/372/93 140/371/93 138/370/93 137/369/93
f 143/376/94 144/375/94 142/374/94 141/373/94
f 142/380/95 137/379/95 138/378/95 141/377/95
f 143/384/96 140/383/96 139/382/96 144/381/96
o GearCaseOuterPlanks4
v 0.9375 0.7515625 1.0625
v 0.9375 0.7515625 1
v 0.9375 0.24843749999999998 1.0625
v 0.9375 0.24843749999999998 1
v 0.0625 0.7515625 1
v 0.0625 0.7515625 1.0625
v 0.0625 0.24843749999999998 1
v 0.0625 0.24843749999999998 1.0625
vt 0.5 0.9375
vt 0.5 1
vt 0.753125 1
vt 0.753125 0.9375
vt 0.0625 1
vt 0.9375 1
vt 0.9375 0.934375
vt 0.0625 0.934375
vt 0.5 0.9375
vt 0.5 1
vt 0.753125 1
vt 0.753125 0.9375
vt 0.9375 0.9375
vt 0.0625 0.9375
vt 0.0625 1
vt 0.9375 1
vt 0.0625 1
vt 0.9375 1
vt 0.9375 0.9375
vt 0.0625 0.9375
vn 1 0 0
vn 0 0 1
vn -1 0 0
vn 0 1 0
vn 0 -1 0
usemtl m_8bb54874-b2ca-269d-68b3-193ddd26a8e7
f 147/388/97 148/387/97 146/386/97 145/385/97
f 152/392/98 147/391/98 145/390/98 150/389/98
f 151/396/99 152/395/99 150/394/99 149/393/99
f 150/400/100 145/399/100 146/398/100 149/397/100
f 151/404/101 148/403/101 147/402/101 152/401/101
o GearCaseOuter5
v 0.0625 0.7515625 0.9375
v 0.0625 0.7515625 0.0625
v 0.0625 0.24843749999999998 0.9375
v 0.0625 0.24843749999999998 0.0625
v 0 0.7515625 0.0625
v 0 0.7515625 0.9375
v 0 0.24843749999999998 0.0625
v 0 0.24843749999999998 0.9375
vt 0.4375 0.875
vt 0.4375 0.9375
vt 0.690625 0.9375
vt 0.690625 0.875
vt 0.4375 0.875
vt 0.4375 0.9375
vt 0.690625 0.9375
vt 0.690625 0.875
vt 0.8125 0.0625
vt 0.75 0.0625
vt 0.75 0.9375
vt 0.8125 0.9375
vt 0.8125 0.0625
vt 0.75 0.0625
vt 0.75 0.9375
vt 0.8125 0.9375
vn 0 0 -1
vn 0 0 1
vn 0 1 0
vn 0 -1 0
usemtl m_f611d32f-eb04-ca18-312d-151614c94441
f 156/408/102 159/407/102 157/406/102 154/405/102
f 160/412/103 155/411/103 153/410/103 158/409/103
f 158/416/104 153/415/104 154/414/104 157/413/104
f 159/420/105 156/419/105 155/418/105 160/417/105
o GearCaseOuterPlanks1
v 0 0.7515625 0.9375
v 0 0.7515625 0.0625
v 0 0.24843749999999998 0.9375
v 0 0.24843749999999998 0.0625
v -0.0625 0.7515625 0.0625
v -0.0625 0.7515625 0.9375
v -0.0625 0.24843749999999998 0.0625
v -0.0625 0.24843749999999998 0.9375
vt 0.5 0.9375
vt 0.5 1
vt 0.753125 1
vt 0.753125 0.9375
vt 0.5 0.9375
vt 0.5 1
vt 0.753125 1
vt 0.753125 0.9375
vt 0.0625 1
vt 0.9375 1
vt 0.9375 0.934375
vt 0.0625 0.934375
vt 0.9375 1
vt 0.9375 0.9375
vt 0.0625 0.9375
vt 0.0625 1
vt 0.9375 1
vt 0.9375 0.9375
vt 0.0625 0.9375
vt 0.0625 1
vn 0 0 -1
vn 0 0 1
vn -1 0 0
vn 0 1 0
vn 0 -1 0
usemtl m_8bb54874-b2ca-269d-68b3-193ddd26a8e7
f 164/424/106 167/423/106 165/422/106 162/421/106
f 168/428/107 163/427/107 161/426/107 166/425/107
f 167/432/108 168/431/108 166/430/108 165/429/108
f 166/436/109 161/435/109 162/434/109 165/433/109
f 167/440/110 164/439/110 163/438/110 168/437/110
o tube1
v 0.7763225 0.40625 1.53125
v 0.7763225 0.28125 1.53125
v 0.6520956250000001 0.40625 1.06762875
v 0.6520956250000001 0.28125 1.06762875
v 1.2549275 0.40625 1.2549275
v 1.2549275 0.28125 1.2549275
v 0.9155331250000001 0.40625 0.9155331250000001
v 0.9155331250000001 0.28125 0.9155331250000001
v 1.53125 0.40625 0.7763225
v 1.53125 0.28125 0.7763225
v 1.06762875 0.40625 0.6520956250000001
v 1.06762875 0.28125 0.6520956250000001
v 1.53125 0.40625 0.22367749999999997
v 1.53125 0.28125 0.22367749999999997
v 1.06762875 0.40625 0.347904375
v 1.06762875 0.28125 0.347904375
v 1.2549275 0.40625 -0.2549275
v 1.2549275 0.28125 -0.2549275
v 0.9155331250000001 0.40625 0.084466875
v 0.9155331250000001 0.28125 0.084466875
v 0.7763225 0.40625 -0.53125
v 0.7763225 0.28125 -0.53125
v 0.6520956250000001 0.40625 -0.06762875000000002
v 0.6520956250000001 0.28125 -0.06762875000000002
v 0.22367749999999997 0.40625 -0.53125
v 0.22367749999999997 0.28125 -0.53125
v 0.347904375 0.40625 -0.06762875000000002
v 0.347904375 0.28125 -0.06762875000000002
v -0.2549275 0.40625 -0.2549275
v -0.2549275 0.28125 -0.2549275
v 0.084466875 0.40625 0.084466875
v 0.084466875 0.28125 0.084466875
v -0.53125 0.40625 0.22367749999999997
v -0.53125 0.28125 0.22367749999999997
v -0.06762875000000002 0.40625 0.347904375
v -0.06762875000000002 0.28125 0.347904375
v -0.53125 0.40625 0.7763225
v -0.53125 0.28125 0.7763225
v -0.06762875000000002 0.40625 0.6520956250000001
v -0.06762875000000002 0.28125 0.6520956250000001
v -0.2549275 0.40625 1.2549275
v -0.2549275 0.28125 1.2549275
v 0.084466875 0.40625 0.9155331250000001
v 0.084466875 0.28125 0.9155331250000001
v 0.22367749999999997 0.40625 1.53125
v 0.22367749999999997 0.28125 1.53125
v 0.347904375 0.40625 1.06762875
v 0.347904375 0.28125 1.06762875
vt 0.55265 0.5
vt 0.55265 0.375
vt 0 0.375
vt 0 0.5
vt 0 0.375
vt 0 0.5
vt 0.30418749999999994 0.5
vt 0.30418749999999994 0.375
vt 1 0.4999968749999997
vt 0.9108361777300962 0.06250312495535737
vt 0.6191284308819078 0.06250312495535737
vt 0.5 0.4999950000267853
vt 0.5784404527329032 0.06250249996428603
vt 0.5 0.49999625000892844
vt 1 0.49999625000892844
vt 0.8777628539589526 0.06250374994642904
vt 0.55265 0.5
vt 0.55265 0.375
vt 0 0.375
vt 0 0.5
vt 0 0.375
vt 0 0.5
vt 0.30418749999999994 0.5
vt 0.30418749999999994 0.375
vt 0.5 0.4999950000267853
vt 0.5891704150771507 0.06250312495535737
vt 0.880877562579226 0.06250312495535737
vt 1 0.4999968749999999
vt 0.9215570872969602 0.06250374994642904
vt 1 0.49999625000892844
vt 0.5 0.49999625000892844
vt 0.622234071078377 0.06250249996428603
vt 0.55265 0.5
vt 0.55265 0.375
vt 0 0.375
vt 0 0.5
vt 0 0.375
vt 0 0.5
vt 0.30418749999999994 0.5
vt 0.30418749999999994 0.375
vt 1 0.4999937500446424
vt 0.9108337803456426 0.0625
vt 0.6191320269585878 0.0625
vt 0.5 0.4999937500446424
vt 0.6191320269585878 0.0625
vt 0.5 0.4999937500446424
vt 1 0.4999937500446424
vt 0.9108337803456426 0.0625
vt 0.55265 0.5
vt 0.55265 0.375
vt 0 0.375
vt 0 0.5
vt 0 0.375
vt 0 0.5
vt 0.30418749999999994 0.5
vt 0.30418749999999994 0.375
vt 0.5 0.4999968749999999
vt 0.6222322261007751 0.06250312495535759
vt 0.9215552423193581 0.06250312495535759
vt 1 0.4999950000267853
vt 0.880875764540886 0.06250249996428592
vt 1 0.49999625000892844
vt 0.5 0.4999962500089282
vt 0.5891686170388106 0.06250374994642893
vt 0.55265 0.5
vt 0.55265 0.375
vt 0 0.375
vt 0 0.5
vt 0 0.375
vt 0 0.5
vt 0.30418749999999994 0.5
vt 0.30418749999999994 0.375
vt 1 0.4999950000267853
vt 0.8777610089813508 0.06250312495535759
vt 0.5784386077553014 0.06250312495535759
vt 0.5 0.4999968749999999
vt 0.6191266328435674 0.06250374994642893
vt 0.5 0.49999625000892844
vt 1 0.4999962500089282
vt 0.9108343796917557 0.06250249996428592
vt 0.55265 0.5
vt 0.55265 0.375
vt 0 0.375
vt 0 0.5
vt 0 0.375
vt 0 0.5
vt 0.30418749999999994 0.5
vt 0.30418749999999994 0.375
vt 0.5 0.4999937500446424
vt 0.622242065981319 0.0625
vt 0.9215589322745623 0.0625
vt 1 0.4999937500446425
vt 0.8808679730414117 0.06250312495535737
vt 1 0.4999968749999999
vt 0.5 0.4999968749999997
vt 0.5891662196543572 0.06250312495535737
vt 0.55265 0.5
vt 0.55265 0.375
vt 0 0.375
vt 0 0.5
vt 0 0.375
vt 0 0.5
vt 0.30418749999999994 0.5
vt 0.30418749999999994 0.375
vt 1 0.4999968749999999
vt 0.8777677738992247 0.06250312495535759
vt 0.5784447576806415 0.06250312495535759
vt 0.5 0.4999950000267853
vt 0.6191242354591138 0.06250312495535737
vt 0.5 0.4999968749999999
vt 1 0.4999968749999997
vt 0.9108313829611889 0.0625043749375005
vt 0.55265 0.5
vt 0.55265 0.375
vt 0 0.375
vt 0 0.5
vt 0 0.375
vt 0 0.5
vt 0.30418749999999994 0.5
vt 0.30418749999999994 0.375
vt 0.5 0.4999950000267853
vt 0.622238991018649 0.06250312495535759
vt 0.9215613922446981 0.06250312495535759
vt 1 0.4999968749999999
vt 0.8808733671564324 0.0625043749375005
vt 1 0.4999968749999999
vt 0.5 0.4999968749999997
vt 0.5891656203082438 0.06250312495535737
vt 0.55265 0.5
vt 0.55265 0.375
vt 0 0.375
vt 0 0.5
vt 0 0.375
vt 0 0.5
vt 0.30418749999999994 0.5
vt 0.30418749999999994 0.375
vt 1 0.4999968749999999
vt 0.877757934018681 0.06250312495535759
vt 0.5784410677254375 0.06250312495535759
vt 0.5 0.4999968749999999
vt 0.5784410677254375 0.06250312495535759
vt 0.5 0.4999968749999999
vt 1 0.4999968749999999
vt 0.877757934018681 0.06250312495535759
vt 0.55265 0.5
vt 0.55265 0.375
vt 0 0.375
vt 0 0.5
vt 0 0.375
vt 0 0.5
vt 0.30418749999999994 0.5
vt 0.30418749999999994 0.375
vt 0.5 0.4999968749999997
vt 0.5891638222699034 0.06250312495535737
vt 0.8808715691180922 0.06250312495535737
vt 1 0.4999950000267853
vt 0.9215595472670963 0.0625062499553577
vt 1 0.5
vt 0.5 0.5
vt 0.6222371460410472 0.0625074999375006
vt 0.55265 0.5
vt 0.55265 0.375
vt 0 0.375
vt 0 0.5
vt 0 0.375
vt 0 0.5
vt 0.30418749999999994 0.5
vt 0.30418749999999994 0.375
vt 1 0.4999950000267853
vt 0.9108295849228488 0.06250312495535737
vt 0.6191224374207733 0.06250312495535737
vt 0.5 0.4999968749999999
vt 0.5784429127030393 0.0625074999375006
vt 0.5 0.5
vt 1 0.5
vt 0.8777659289216224 0.0625062499553577
vt 0.55265 0.5
vt 0.55265 0.375
vt 0 0.375
vt 0 0.5
vt 0 0.375
vt 0 0.5
vt 0.30418749999999994 0.5
vt 0.30418749999999994 0.375
vt 0.5 0.4999968749999997
vt 0.5891662196543572 0.06250312495535737
vt 0.8808679730414117 0.06250312495535737
vt 1 0.4999968749999999
vt 0.9215589322745623 0.06250624995535747
vt 1 0.5
vt 0.5 0.4999999999999999
vt 0.622242065981319 0.06250624995535747
vn 0.49999969385584014 0 0.8660255805367798
vn -0.4999997866319021 0 -0.8660255269725325
vn 0 1 0
vn 0 -1 0
vn 0.8660255805367798 0 0.49999969385584014
vn -0.8660255269725325 0 -0.4999997866319021
vn 0 1 0
vn 0 -1 0
vn 1 0 0
vn -1 0 0
vn 0 1 0
vn 0 -1 0
vn 0.8660255805367798 0 -0.49999969385584014
vn -0.8660255269725325 0 0.4999997866319021
vn 0 1 0
vn 0 -1 0
vn 0.49999969385584014 0 -0.8660255805367798
vn -0.4999997866319021 0 0.8660255269725325
vn 0 1 0
vn 0 -1 0
vn 0 0 -1
vn 0 0 1
vn 0 1 0
vn 0 -1 0
vn -0.49999969385584014 0 -0.8660255805367798
vn 0.4999997866319021 0 0.8660255269725325
vn 0 1 0
vn 0 -1 0
vn -0.8660255805367798 0 -0.49999969385584014
vn 0.8660255269725325 0 0.4999997866319021
vn 0 1 0
vn 0 -1 0
vn -1 0 0
vn 1 0 0
vn 0 1 0
vn 0 -1 0
vn -0.8660255805367798 0 0.49999969385584014
vn 0.8660255269725325 0 -0.4999997866319021
vn 0 1 0
vn 0 -1 0
vn -0.49999969385584014 0 0.8660255805367798
vn 0.4999997866319021 0 -0.8660255269725325
vn 0 1 0
vn 0 -1 0
vn 0 0 1
vn 0 0 -1
vn 0 1 0
vn 0 -1 0
usemtl m_8bb54874-b2ca-269d-68b3-193ddd26a8e7
f 174/441/111 173/442/111 169/443/111 170/444/111
f 175/445/112 176/446/112 172/447/112 171/448/112
f 173/449/113 175/450/113 171/451/113 169/452/113
f 176/453/114 174/454/114 170/455/114 172/456/114
f 178/457/115 177/458/115 173/459/115 174/460/115
f 179/461/116 180/462/116 176/463/116 175/464/116
f 177/465/117 179/466/117 175/467/117 173/468/117
f 180/469/118 178/470/118 174/471/118 176/472/118
f 182/473/119 181/474/119 177/475/119 178/476/119
f 183/477/120 184/478/120 180/479/120 179/480/120
f 181/481/121 183/482/121 179/483/121 177/484/121
f 184/485/122 182/486/122 178/487/122 180/488/122
f 186/489/123 185/490/123 181/491/123 182/492/123
f 187/493/124 188/494/124 184/495/124 183/496/124
f 185/497/125 187/498/125 183/499/125 181/500/125
f 188/501/126 186/502/126 182/503/126 184/504/126
f 190/505/127 189/506/127 185/507/127 186/508/127
f 191/509/128 192/510/128 188/511/128 187/512/128
f 189/513/129 191/514/129 187/515/129 185/516/129
f 192/517/130 190/518/130 186/519/130 188/520/130
f 194/521/131 193/522/131 189/523/131 190/524/131
f 195/525/132 196/526/132 192/527/132 191/528/132
f 193/529/133 195/530/133 191/531/133 189/532/133
f 196/533/134 194/534/134 190/535/134 192/536/134
f 198/537/135 197/538/135 193/539/135 194/540/135
f 199/541/136 200/542/136 196/543/136 195/544/136
f 197/545/137 199/546/137 195/547/137 193/548/137
f 200/549/138 198/550/138 194/551/138 196/552/138
f 202/553/139 201/554/139 197/555/139 198/556/139
f 203/557/140 204/558/140 200/559/140 199/560/140
f 201/561/141 203/562/141 199/563/141 197/564/141
f 204/565/142 202/566/142 198/567/142 200/568/142
f 206/569/143 205/570/143 201/571/143 202/572/143
f 207/573/144 208/574/144 204/575/144 203/576/144
f 205/577/145 207/578/145 203/579/145 201/580/145
f 208/581/146 206/582/146 202/583/146 204/584/146
f 210/585/147 209/586/147 205/587/147 206/588/147
f 211/589/148 212/590/148 208/591/148 207/592/148
f 209/593/149 211/594/149 207/595/149 205/596/149
f 212/597/150 210/598/150 206/599/150 208/600/150
f 214/601/151 213/602/151 209/603/151 210/604/151
f 215/605/152 216/606/152 212/607/152 211/608/152
f 213/609/153 215/610/153 211/611/153 209/612/153
f 216/613/154 214/614/154 210/615/154 212/616/154
f 170/617/155 169/618/155 213/619/155 214/620/155
f 171/621/156 172/622/156 216/623/156 215/624/156
f 169/625/157 171/626/157 215/627/157 213/628/157
f 172/629/158 170/630/158 214/631/158 216/632/158